 <svg  version="1.0" xmlns="http://www.w3.org/2000/svg"  width="300.000000pt" height="300.000000pt" viewBox="0 0 300.000000 300.000000"  preserveAspectRatio="xMidYMid meet">  <g transform="translate(0.000000,300.000000) scale(0.100000,-0.100000)" fill="#000000" stroke="none"> <path d="M1325 2989 c-102 -12 -269 -53 -363 -90 -207 -83 -356 -181 -518 -343 -205 -205 -323 -410 -394 -683 -92 -351 -50 -725 117 -1057 131 -259 390 -518 649 -649 258 -130 538 -184 815 -158 366 34 664 174 925 435 205 205 323 410 394 683 92 351 50 725 -117 1057 -131 260 -390 518 -651 650 -268 135 -559 188 -857 155z m120 -687 c102 -56 144 -154 131 -307 -4 -44 -25 -160 -47 -259 -22 -98 -38 -181 -36 -183 3 -2 33 45 68 104 123 207 250 352 355 404 68 33 189 34 251 1 113 -59 128 -185 62 -517 -18 -95 -33 -205 -36 -270 -4 -101 -2 -114 19 -155 31 -60 80 -86 135 -71 51 14 89 55 118 127 29 72 59 89 103 57 38 -28 52 -60 52 -123 0 -109 -82 -225 -198 -282 -59 -30 -76 -33 -152 -33 -76 0 -93 4 -152 33 -36 18 -81 49 -99 69 -119 136 -129 385 -29 779 16 62 32 123 35 135 23 72 -145 -119 -270 -306 -97 -146 -174 -282 -293 -522 -39 -78 -81 -149 -94 -157 -50 -36 -141 -7 -173 54 -34 65 21 743 90 1103 7 40 12 73 11 75 -2 2 -26 -25 -54 -60 -145 -183 -304 -477 -471 -873 -117 -275 -136 -313 -166 -327 -35 -16 -90 -1 -130 34 l-35 30 0 107 c0 131 -15 309 -36 421 -9 47 -18 106 -21 132 -5 44 -4 47 25 62 60 31 131 14 170 -41 19 -28 24 -40 37 -98 6 -27 11 -20 51 80 60 150 152 330 228 445 198 301 393 419 551 332z"/> </g> </svg> 