<?xml version="1.0" standalone="no"?>
<!DOCTYPE svg PUBLIC "-//W3C//DTD SVG 20010904//EN"
 "http://www.w3.org/TR/2001/REC-SVG-20010904/DTD/svg10.dtd">
<svg version="1.0" xmlns="http://www.w3.org/2000/svg"
 width="300.000000pt" height="300.000000pt" viewBox="0 0 300.000000 300.000000"
 preserveAspectRatio="xMidYMid meet">
<metadata>
Created by potrace 1.10, written by Peter Selinger 2001-2011
</metadata>
<g transform="translate(0.000000,300.000000) scale(0.100000,-0.100000)"
fill="#000000" stroke="none">
<path d="M1 2298 c1 -468 5 -676 10 -623 18 163 75 348 155 507 132 262 390
520 652 652 159 80 344 137 507 155 53 5 -155 9 -622 10 l-703 1 1 -702z"/>
<path d="M1675 2989 c163 -18 348 -75 507 -155 262 -132 520 -390 652 -652 80
-159 137 -344 155 -507 5 -53 9 155 10 623 l1 702 -702 -1 c-468 -1 -676 -5
-623 -10z"/>
<path d="M1242 2312 c-187 -74 -414 -384 -576 -787 -40 -100 -45 -107 -51 -80
-13 58 -18 70 -37 98 -39 55 -110 72 -170 41 -29 -15 -30 -18 -25 -62 3 -26
12 -85 21 -132 21 -112 36 -290 36 -421 l0 -107 35 -30 c40 -35 95 -50 130
-34 30 14 49 52 166 327 167 396 326 690 471 873 28 35 52 62 54 60 1 -2 -4
-35 -11 -75 -45 -233 -81 -563 -95 -866 -9 -182 -9 -211 5 -237 32 -61 123
-90 173 -54 13 8 55 79 94 157 119 240 196 376 293 522 92 138 207 279 254
311 22 16 23 16 16 -5 -3 -12 -19 -73 -35 -135 -100 -394 -90 -643 29 -779 18
-20 63 -51 99 -69 59 -29 76 -33 152 -33 76 0 93 3 152 33 116 57 198 173 198
282 0 63 -14 95 -52 123 -44 32 -74 15 -103 -57 -29 -72 -67 -113 -118 -127
-55 -15 -104 11 -135 71 -21 41 -23 54 -19 155 3 65 18 175 36 270 66 332 51
458 -62 517 -62 33 -183 32 -251 -1 -105 -52 -232 -197 -355 -404 -35 -59 -65
-106 -68 -104 -2 2 14 85 36 183 47 211 58 316 41 397 -23 113 -121 197 -230
196 -30 0 -74 -8 -98 -17z"/>
<path d="M1 703 l-1 -703 703 1 c467 1 675 5 622 10 -163 18 -348 75 -507 155
-262 132 -520 390 -652 652 -80 159 -137 344 -155 507 -5 53 -9 -155 -10 -622z"/>
<path d="M2986 1320 c-12 -148 -71 -341 -153 -504 -131 -260 -390 -518 -651
-650 -159 -80 -344 -137 -507 -155 -53 -5 155 -9 623 -10 l702 -1 0 700 c0
385 -2 700 -4 700 -2 0 -6 -36 -10 -80z"/>
</g>
</svg>
